<svg xmlns="http://www.w3.org/2000/svg" viewBox="0 0 64 64"><path fill="#3EBBDD" d="M16.117 50a1 1 0 0 1-.986-1.174l.353-2a.999.999 0 1 1 1.969.348l-.353 2a.997.997 0 0 1-.983.826zM15.059 56a1 1 0 0 1-.986-1.174l.353-2a1 1 0 0 1 1.969.348l-.353 2a.999.999 0 0 1-.983.826zM14.001 62a1 1 0 0 1-.986-1.174l.353-2a1 1 0 0 1 1.969.348l-.353 2a.998.998 0 0 1-.983.826zM24.648 50a1 1 0 0 1-.986-1.174l.353-2a1 1 0 0 1 1.969.348l-.353 2a.997.997 0 0 1-.983.826zM23.591 56a1 1 0 0 1-.986-1.174l.353-2a1 1 0 0 1 1.969.348l-.353 2a.999.999 0 0 1-.983.826zM22.532 62a1 1 0 0 1-.986-1.174l.353-2a1 1 0 1 1 1.969.348l-.353 2a.997.997 0 0 1-.983.826zM32.883 50a1 1 0 0 1-.986-1.174l.353-2a1 1 0 0 1 1.969.348l-.353 2a.999.999 0 0 1-.983.826zM31.824 56a1 1 0 0 1-.986-1.174l.354-2a1 1 0 0 1 1.969.348l-.354 2a.997.997 0 0 1-.983.826zM30.767 62a1 1 0 0 1-.986-1.174l.353-2a1 1 0 1 1 1.969.348l-.353 2a.999.999 0 0 1-.983.826zM41.117 50a1 1 0 0 1-.986-1.174l.353-2a1 1 0 0 1 1.969.348l-.353 2a.997.997 0 0 1-.983.826zM40.059 56a1 1 0 0 1-.986-1.174l.353-2a1 1 0 1 1 1.969.348l-.353 2a.999.999 0 0 1-.983.826zM39.001 62a1 1 0 0 1-.986-1.174l.353-2a1 1 0 1 1 1.969.348l-.353 2a.998.998 0 0 1-.983.826zM49.648 50a1 1 0 0 1-.986-1.174l.353-2a.999.999 0 1 1 1.969.348l-.353 2a.997.997 0 0 1-.983.826zM48.591 56a1 1 0 0 1-.986-1.174l.353-2a1 1 0 1 1 1.969.348l-.353 2a.999.999 0 0 1-.983.826zM47.532 62a1 1 0 0 1-.986-1.174l.353-2a1 1 0 0 1 1.969.348l-.353 2a.997.997 0 0 1-.983.826z"/><path fill="#E6E6E6" d="M54.75 22.102c.166-.687.25-1.39.25-2.102 0-4.842-3.844-8.804-8.641-8.993A12.982 12.982 0 0 0 34 2c-4.15 0-8.008 1.964-10.459 5.288a11.468 11.468 0 0 0-5.71.16c-4.182 1.19-7.38 4.72-8.146 8.992a11.459 11.459 0 0 0 .4 5.657C5.52 22.755 2 26.694 2 31.439v3.037C2 39.728 6.272 44 11.524 44h41.889C58.147 44 62 40.148 62 35.413v-4.902c0-4.245-3.124-7.774-7.25-8.409z"/><path fill="#CCC" d="M58.501 23.658c.32.893.499 1.852.499 2.853v4.902C59 36.148 55.147 40 50.413 40H8.524a9.46 9.46 0 0 1-5.849-2.024C4.074 41.499 7.509 44 11.524 44h41.889C58.147 44 62 40.148 62 35.413v-4.902c0-2.811-1.375-5.303-3.499-6.853z"/></svg>