<svg xmlns="http://www.w3.org/2000/svg" xmlns:xlink="http://www.w3.org/1999/xlink" data-name="Layer 1" viewBox="0 0 130 130"><defs><linearGradient id="b" x1="-658.14" x2="-621.97" y1="-32.74" y2="-32.74" gradientTransform="rotate(134.41 -301.053 149.22)" gradientUnits="userSpaceOnUse"><stop offset="0" stop-color="#ccc"/><stop offset="1" stop-color="#cdcdcd"/><stop offset="1" stop-color="#dbdbdb"/><stop offset="1" stop-color="#f2f2f2"/></linearGradient><linearGradient id="a" x1="-121.35" x2="-73.48" y1="888.21" y2="888.21" gradientTransform="translate(169.06 -862.53)" gradientUnits="userSpaceOnUse"><stop offset="0" stop-color="#ccc"/><stop offset=".35" stop-color="#dbdbdb"/><stop offset="1" stop-color="#f2f2f2"/></linearGradient><linearGradient id="c" x1="-382.28" x2="-328.97" y1="1244.31" y2="1244.31" gradientTransform="rotate(-90 -759.43 457.21)" xlink:href="#a"/><linearGradient id="d" x1="124.27" x2="169.15" y1="886.73" y2="886.73" gradientTransform="translate(-103.37 -857.79)" xlink:href="#a"/><linearGradient id="e" x1="-604.32" x2="-549.07" y1="1210.78" y2="1210.78" gradientTransform="rotate(-90 -837.885 314.595)" gradientUnits="userSpaceOnUse"><stop offset=".41" stop-color="#ccc"/><stop offset=".62" stop-color="#dbdbdb"/><stop offset="1" stop-color="#f2f2f2"/></linearGradient><linearGradient id="f" x1="-69.05" x2="-24.17" y1="877.33" y2="877.33" gradientTransform="translate(136.02 -818.56)" xlink:href="#b"/><linearGradient id="g" x1="-1190.23" x2="-1153.39" y1="517.17" y2="517.17" gradientTransform="rotate(180 -530.62 285.4)" gradientUnits="userSpaceOnUse"><stop offset="1" stop-color="#ccc"/><stop offset="1" stop-color="#dbdbdb"/><stop offset="1" stop-color="#f2f2f2"/></linearGradient><linearGradient id="h" x1="-409.55" x2="-370.96" y1="1008.89" y2="1008.89" gradientTransform="rotate(-115.15 -459.581 364.916)" gradientUnits="userSpaceOnUse"><stop offset=".35" stop-color="#ccc"/><stop offset=".71" stop-color="#cecece"/><stop offset=".83" stop-color="#d5d5d5"/><stop offset=".92" stop-color="#e0e0e0"/><stop offset="1" stop-color="#f1f1f1"/><stop offset="1" stop-color="#f2f2f2"/></linearGradient></defs><circle cx="66.18" cy="34.4" r="18.08" fill="url(#b)" transform="rotate(-57.72 66.178 34.402)"/><circle cx="71.64" cy="25.68" r="23.93" fill="url(#a)" transform="rotate(-80.24 71.642 25.678)"/><circle cx="27.66" cy="53.4" r="26.66" fill="url(#c)" transform="rotate(-19.53 27.663 53.4)"/><circle cx="43.35" cy="28.94" r="22.44" fill="url(#d)" transform="rotate(-79.11 43.348 28.94)"/><circle cx="58.3" cy="53.4" r="27.62" fill="url(#e)" transform="rotate(-39.73 58.291 53.4)"/><circle cx="89.41" cy="58.78" r="22.44" fill="url(#f)" transform="rotate(-55.63 89.405 58.774)"/><circle cx="110.57" cy="53.64" r="18.42" fill="url(#g)" transform="matrix(.27 -.96 .96 .27 29.45 145.95)"/><circle cx="94.85" cy="30.64" r="19.29" fill="url(#h)" transform="rotate(-29.26 94.853 30.632)"/><polygon fill="#ffb100" points="51.25 44.33 40.02 84.7 56.16 84.7 51.29 118.11 81.25 71.01 67.4 69.96 77.43 44.33 51.25 44.33"/><polygon fill="#fed94c" points="54.91 49.62 45.15 84.7 40.02 84.7 51.25 44.33 77.42 44.33 75.35 49.62 54.91 49.62"/><path fill="#0baeff" d="M20.65 101.66c-.37 1.64-.84 3.24-1.26 4.87s-.93 3.2-1.45 4.78-.68 3.32-1.63 4.71a11.74 11.74 0 0 1-3.69 3.79l-.38-.17a11.79 11.79 0 0 1 .32-5.28c.39-1.64 1.56-2.93 2.39-4.37s1.68-2.88 2.57-4.29 1.79-2.83 2.76-4.21zM43.53 92.58c-.37 1.64-.84 3.24-1.26 4.87s-.93 3.2-1.44 4.79-.69 3.31-1.64 4.7a11.55 11.55 0 0 1-3.69 3.79l-.38-.16a11.69 11.69 0 0 1 .33-5.29c.38-1.64 1.55-2.93 2.38-4.37S39.51 98 40.4 96.62s1.79-2.83 2.76-4.21zM91.68 87.6c-.37 1.65-.85 3.25-1.26 4.87s-.94 3.21-1.45 4.79-.69 3.32-1.64 4.71a11.74 11.74 0 0 1-3.69 3.79l-.38-.17a11.64 11.64 0 0 1 .33-5.28c.39-1.64 1.56-2.93 2.38-4.38s1.69-2.87 2.57-4.29 1.79-2.82 2.76-4.2zM106.71 100c-.37 1.64-.84 3.24-1.26 4.87s-.93 3.2-1.45 4.78-.68 3.32-1.63 4.71a11.68 11.68 0 0 1-3.7 3.79L98.3 118a11.65 11.65 0 0 1 .32-5.28c.39-1.64 1.56-2.93 2.39-4.37s1.68-2.88 2.57-4.29 1.79-2.83 2.76-4.21zM71.17 110.11c-.37 1.64-.84 3.24-1.26 4.87s-.93 3.2-1.45 4.78-.68 3.32-1.63 4.71a11.78 11.78 0 0 1-3.7 3.79l-.37-.17a11.65 11.65 0 0 1 .32-5.28c.39-1.64 1.56-2.93 2.39-4.37s1.68-2.88 2.57-4.29 1.79-2.83 2.76-4.21zM126.19 76.62c-.37 1.65-.85 3.25-1.26 4.87s-.94 3.21-1.45 4.79-.68 3.31-1.64 4.7a11.67 11.67 0 0 1-3.69 3.8l-.37-.17a11.56 11.56 0 0 1 .32-5.29c.39-1.63 1.56-2.92 2.38-4.37s1.69-2.87 2.57-4.29 1.79-2.82 2.76-4.2zM12.62 82.8c-.38 1.65-.85 3.25-1.27 4.87s-.93 3.21-1.44 4.79-.69 3.32-1.64 4.71A11.74 11.74 0 0 1 4.58 101l-.38-.17a11.64 11.64 0 0 1 .33-5.28c.39-1.64 1.55-2.93 2.38-4.38s1.68-2.87 2.57-4.29 1.79-2.82 2.76-4.2z"/></svg>